<svg width="138" height="180" viewBox="0 0 138 180" fill="none" xmlns="http://www.w3.org/2000/svg">
<path d="M0.202763 72.0259C0.42805 69.8884 -0.0225232 67.391 0.42805 64.8035C1.10391 60.6185 3.46941 57.356 7.20917 55.5561C8.11032 55.1061 8.56089 54.6561 8.78618 53.4186C10.3632 44.3962 14.1029 36.0487 19.5323 28.5788C20.2082 27.6788 20.6588 27.2288 19.7576 25.9913C18.8565 24.6413 19.5323 23.1789 20.4335 22.0314C28.1158 13.4589 37.1498 7.1365 47.8959 3.62653C73.6687 -4.49589 96.265 1.03906 115.82 20.0964C117.622 21.8964 120.01 23.5839 117.622 26.6438C117.172 27.0938 117.847 27.5438 118.298 27.9938C123.84 35.6662 127.557 44.2387 129.269 53.5086C129.495 54.4086 130.171 54.8586 130.846 55.3086C135.487 57.671 137.853 61.631 137.853 66.941C137.853 72.2509 138.303 76.1884 137.628 80.8233C136.501 87.5958 129.72 92.2307 123.164 90.7457C121.362 90.2957 120.573 88.9457 120.573 87.0108C120.573 79.3383 120.799 71.6659 120.573 63.9935C119.898 43.3387 110.864 27.7688 92.8857 17.8239C63.283 1.57905 24.8491 19.9614 18.4059 53.5986C17.2795 59.3585 17.5048 65.456 17.5048 71.2159C17.5048 76.9759 17.5048 82.1733 17.2795 87.6858C17.2795 89.4857 16.153 90.7232 14.0128 90.7232C5.54204 91.1732 0 85.8633 0 77.2909C0.225287 75.9409 0.225287 74.2534 0.225287 71.9809" fill="white"/>
<path d="M58.8417 99.1163C61.883 97.9913 64.1584 95.8538 64.8343 92.3438C65.5102 88.8339 61.5676 83.9964 56.2509 78.9114C50.7088 73.6015 43.4771 67.954 39.5346 65.9291C33.7673 62.4416 28.3379 65.4791 27.2114 72.2515C25.8597 79.6989 27.2114 86.6964 31.1765 92.9063C33.9926 97.3163 37.9576 99.2288 42.8238 99.6788C45.5272 99.5663 56.4987 100.129 58.8642 99.1163M83.6908 101.254C87.1827 101.704 90.4719 102.379 93.9639 102.604C98.6048 102.829 102.097 101.479 104.71 98.6438C107.977 95.1563 109.576 90.7463 109.351 86.1114C109.126 81.2514 105.161 78.4389 99.8664 79.3389C95.0002 80.0139 90.8324 82.1514 86.4167 83.7489C82.4517 85.3239 78.9598 87.2364 76.1437 89.7338C72.1786 93.4688 74.3414 98.5313 80.5593 100.466C81.3478 100.804 82.4742 101.029 83.7133 101.254M120.66 97.0913C119.984 96.4163 118.858 96.8663 118.295 97.7663C116.155 104.539 106.197 127.218 72.2913 129.603C32.2804 132.416 93.6485 141.011 111.176 128.028C117.168 123.394 123.949 118.781 123.724 105.461C123.724 102.874 122.485 98.4638 120.683 97.1138" fill="white"/>
<path fill-rule="evenodd" clip-rule="evenodd" d="M7.11273 147.459H10V151.333H8.60743C7.9947 151.36 7.59549 151.469 7.4191 151.677C7.24271 151.876 7.14058 152.32 7.12202 152.999V174C5.96154 174 4.72679 173.81 3.9748 172.995C3.22281 172.181 3 170.56 3 169.673V140H7.12202V147.459H7.11273Z" fill="white"/>
<path d="M16.9651 162.487V168.416C16.9651 169.212 17.0839 169.761 17.2849 169.973C17.4859 170.221 17.9153 170.354 18.6645 170.354C19.4136 170.354 19.8522 170.23 20.044 169.973C20.245 169.761 20.3638 169.221 20.3638 168.416V165.009H24V168.664C24 169.841 23.9178 170.761 23.799 171.478C23.6437 172.195 23.3605 172.735 22.9676 173.115C22.5748 173.496 22.0174 173.699 21.3505 173.832C20.6379 173.956 19.7334 174 18.6188 174C17.5042 174 16.5266 173.956 15.7683 173.832C15.0191 173.708 14.4618 173.451 14.0689 173.08C13.6304 172.699 13.3563 172.195 13.2375 171.487C13.0822 170.77 13 169.85 13 168.673V153.336C13 152.159 13.0822 151.239 13.2375 150.522C13.3563 149.805 13.6304 149.265 14.0689 148.885C14.4618 148.549 15.0191 148.301 15.7683 148.168C16.5174 148.035 17.4676 148 18.6188 148C19.7699 148 20.6379 148.044 21.3505 148.168C22.0266 148.292 22.5748 148.504 22.9676 148.885C23.3605 149.265 23.6437 149.77 23.799 150.478C23.9178 151.195 24 152.159 24 153.336V162.496H16.9651V162.487ZM16.9651 159.044H20.3638V153.664C20.3638 152.867 20.245 152.319 20.044 152.106C19.843 151.894 19.3679 151.77 18.6645 151.77C17.961 151.77 17.4767 151.894 17.2849 152.106C17.0839 152.319 16.9651 152.858 16.9651 153.664V159.044Z" fill="white"/>
<path d="M32.3857 174C31.2793 174 30.3649 173.956 29.6974 173.876C28.9842 173.752 28.4356 173.54 28.0332 173.204C27.6401 172.868 27.3566 172.364 27.2377 171.736C27.0823 171.108 27 170.224 27 169.136V163.043C27 161.531 27.2743 160.443 27.8321 159.727C28.3441 159.01 29.2951 158.674 30.6027 158.674H31.3525C32.2668 158.674 32.8978 158.718 33.2544 158.754C33.611 158.833 33.8853 158.922 34.0865 159.046V153.837C34.0865 152.952 33.9676 152.369 33.7664 152.077C33.5653 151.785 33.0898 151.661 32.4223 151.661C31.7548 151.661 31.197 151.785 30.9958 152.077C30.7947 152.369 30.6758 152.961 30.6758 153.837V156.313H27V153.333C27 152.156 27.0823 151.193 27.2377 150.476C27.3566 149.76 27.6309 149.256 28.0332 148.884C28.4264 148.504 28.9842 148.301 29.6517 148.168C30.3283 148.044 31.2336 148 32.34 148C33.4464 148 34.4339 148.044 35.1929 148.168C35.9426 148.292 36.5004 148.548 36.9302 148.884C37.3234 149.265 37.6068 149.804 37.7623 150.52C37.9177 151.237 38 152.156 38 153.333V173.576C37.5245 173.699 36.8113 173.823 35.8238 173.912C34.8362 173.956 33.6841 173.991 32.3766 173.991H32.3857V174ZM32.6234 170.471C33.3732 170.471 33.8853 170.427 34.0865 170.392V162.159C33.8853 162.035 33.6933 161.99 33.4098 161.946C33.1355 161.902 32.852 161.902 32.5777 161.902C32.1388 161.902 31.7822 161.946 31.5445 161.982C31.2702 162.026 31.069 162.15 30.9501 162.318C30.8313 162.486 30.749 162.698 30.7124 162.99C30.6758 163.282 30.6758 163.662 30.6758 164.122V168.066C30.6758 168.614 30.6758 169.03 30.7124 169.322C30.749 169.614 30.8313 169.87 30.9501 170.038C31.069 170.206 31.2702 170.33 31.5445 170.374C31.8188 170.418 32.1754 170.454 32.6143 170.454V170.471H32.6234Z" fill="white"/>
<path d="M45.973 174H42V148.209H45.7027V149.932C45.973 149.288 46.4414 148.816 47.027 148.472C47.6126 148.172 48.4324 148 49.4865 148C50.5405 148 51.2432 148.172 51.8288 148.472C52.4144 148.771 52.8468 149.333 53.1171 150.104C53.5045 149.288 54.018 148.725 54.6396 148.426C55.2613 148.172 56.045 148 57.018 148C57.991 148 58.3784 148.082 58.9279 148.254C59.4324 148.426 59.8288 148.725 60.1351 149.115C60.4505 149.542 60.6847 150.104 60.8018 150.748C60.9189 151.437 61 152.253 61 153.242V174H57.027V153.722C57.027 153.078 56.9099 152.607 56.7117 152.344C56.4775 152.09 56.045 151.954 55.4685 151.954C54.8919 151.954 54.4144 152.081 54.1802 152.299C53.9099 152.516 53.7117 152.861 53.5135 153.242V174H49.5405V153.722C49.5405 153.078 49.4234 152.607 49.2252 152.344C48.991 152.09 48.5586 151.954 47.982 151.954C47.4054 151.954 46.8919 152.081 46.6216 152.299C46.3514 152.552 46.1532 152.897 46 153.287V174H45.973Z" fill="white"/>
<path d="M71.829 155.69V153.796C71.829 153.08 71.7419 152.575 71.5387 152.327C71.3258 152.115 70.7839 151.991 69.9903 151.991C69.1968 151.991 68.6936 152.115 68.4806 152.327C68.2677 152.575 68.1903 153.08 68.1903 153.796V155.814C68.1903 156.195 68.229 156.531 68.2774 156.735C68.3161 156.947 68.4419 157.15 68.5677 157.319C68.6935 157.531 68.9065 157.699 69.1968 157.823C69.4871 157.991 69.8645 158.159 70.329 158.372C70.4161 158.416 70.5806 158.496 70.871 158.619L72.7097 159.46C73 159.584 73.2516 159.708 73.4645 159.841C74.0065 160.133 74.471 160.425 74.8 160.726C75.1387 161.018 75.3903 161.31 75.5548 161.611C75.7194 161.947 75.8452 162.283 75.8935 162.664C75.9323 163.044 75.9806 163.504 75.9806 163.965V168.628C75.9806 169.805 75.8936 170.726 75.7677 171.442C75.6032 172.159 75.3032 172.699 74.8871 173.08C74.4226 173.46 73.8419 173.708 73.0871 173.832C72.2936 173.956 71.2871 174 70.029 174C68.771 174 67.8129 173.956 67.0097 173.832C66.2161 173.708 65.6258 173.451 65.171 173.08C64.7065 172.699 64.4161 172.159 64.2516 171.442C64.0871 170.726 64 169.805 64 168.628V164.761H68.1903V168.168C68.1903 168.92 68.3161 169.425 68.529 169.637C68.7419 169.885 69.2452 170.018 70.0387 170.018C70.8323 170.018 71.3355 169.894 71.5484 169.637C71.7613 169.389 71.8387 168.885 71.8387 168.168V165.097C71.8387 164.761 71.8387 164.469 71.8 164.257C71.7613 164.044 71.6742 163.841 71.5484 163.673C71.4226 163.504 71.2097 163.336 71.0065 163.168C70.7936 163.044 70.4645 162.876 70.0871 162.708C69.7484 162.54 69.4581 162.416 69.1677 162.292C68.8774 162.168 68.6258 162.08 68.3742 161.956C68.0839 161.876 67.8323 161.743 67.5323 161.619C67.2419 161.496 66.9419 161.372 66.6129 161.159C66.071 160.867 65.6452 160.611 65.3161 160.319C64.9774 160.027 64.7258 159.735 64.5226 159.354C64.3097 159.018 64.1839 158.602 64.1452 158.133C64.0581 157.673 64.0194 157.124 64.0194 156.451V153.381C64.0194 152.204 64.1065 151.239 64.271 150.522C64.4355 149.805 64.7355 149.265 65.1903 148.885C65.6065 148.549 66.1968 148.301 66.9903 148.168C67.7839 148.044 68.7903 148 70.0484 148C71.3065 148 72.2645 148.044 73.0677 148.168C73.8613 148.292 74.4516 148.549 74.9065 148.885C75.3226 149.265 75.6226 149.805 75.7871 150.522C75.9129 151.239 76 152.204 76 153.381V155.69H71.829Z" fill="white"/>
<path d="M91 168.594C91 169.565 90.9612 170.412 90.8352 171.044C90.7092 171.722 90.5444 172.274 90.2439 172.648C89.9531 173.031 89.5267 173.326 89.0226 173.495C88.5186 173.664 87.8885 173.744 87.0937 173.744C86.2989 173.744 85.4168 173.62 84.7868 173.361C84.1567 173.112 83.6527 172.639 83.2746 172.007V180H79V148.205H82.9838V150.067C83.3619 149.265 83.9047 148.713 84.5735 148.419C85.2036 148.125 85.9984 148 86.9677 148C87.937 148 88.4313 148.08 88.9838 148.25C89.5267 148.419 89.9531 148.713 90.2439 149.096C90.5347 149.515 90.7092 150.067 90.8352 150.7C90.9612 151.377 91 152.179 91 153.151V168.594ZM83.1583 168.594C83.3716 169.057 83.6624 169.396 83.9532 169.61C84.2439 169.823 84.6704 169.904 85.2132 169.904C85.7561 169.904 86.3086 169.734 86.5121 169.44C86.7254 169.191 86.8514 168.594 86.8514 167.792V153.997C86.8514 153.195 86.7254 152.598 86.5121 152.304C86.2989 152.01 85.8433 151.885 85.2132 151.885C84.5832 151.885 84.2439 151.974 83.9532 152.179C83.6624 152.393 83.3619 152.732 83.1583 153.195V168.594Z" fill="white"/>
<path d="M97.9651 162.487V168.416C97.9651 169.212 98.0839 169.761 98.2849 169.973C98.4859 170.221 98.9153 170.354 99.6645 170.354C100.414 170.354 100.852 170.23 101.044 169.973C101.245 169.761 101.364 169.221 101.364 168.416V165.009H105V168.664C105 169.841 104.918 170.761 104.799 171.478C104.644 172.195 104.36 172.735 103.968 173.115C103.575 173.496 103.017 173.699 102.35 173.832C101.638 173.956 100.733 174 99.6188 174C98.5042 174 97.5266 173.956 96.7683 173.832C96.0191 173.708 95.4618 173.451 95.0689 173.08C94.6304 172.699 94.3563 172.195 94.2375 171.487C94.0822 170.77 94 169.85 94 168.673V153.336C94 152.159 94.0822 151.239 94.2375 150.522C94.3563 149.805 94.6304 149.265 95.0689 148.885C95.4618 148.549 96.0191 148.301 96.7683 148.168C97.5174 148.044 98.4676 148 99.6188 148C100.77 148 101.638 148.044 102.35 148.168C103.027 148.292 103.575 148.504 103.968 148.885C104.36 149.265 104.644 149.77 104.799 150.478C104.918 151.195 105 152.159 105 153.336V162.496H97.9651V162.487ZM97.9651 159.044H101.364V153.664C101.364 152.867 101.245 152.319 101.044 152.106C100.843 151.894 100.368 151.77 99.6645 151.77C98.961 151.77 98.4767 151.894 98.2849 152.106C98.0839 152.319 97.9651 152.858 97.9651 153.664V159.044Z" fill="white"/>
<path d="M113.386 174C112.279 174 111.365 173.956 110.697 173.876C109.984 173.752 109.436 173.54 109.033 173.204C108.64 172.868 108.357 172.364 108.238 171.736C108.082 171.108 108 170.224 108 169.136V163.043C108 161.531 108.274 160.443 108.832 159.727C109.344 159.01 110.295 158.674 111.603 158.674H112.352C113.267 158.674 113.898 158.718 114.254 158.754C114.611 158.833 114.885 158.922 115.086 159.046V153.837C115.086 152.952 114.968 152.369 114.766 152.077C114.565 151.785 114.09 151.661 113.422 151.661C112.755 151.661 112.197 151.785 111.996 152.077C111.795 152.369 111.676 152.961 111.676 153.837V156.313H108V153.333C108 152.156 108.082 151.193 108.238 150.476C108.357 149.76 108.631 149.256 109.033 148.884C109.426 148.504 109.984 148.301 110.652 148.168C111.328 148.044 112.234 148 113.34 148C114.446 148 115.434 148.044 116.193 148.168C116.943 148.292 117.5 148.548 117.93 148.884C118.323 149.265 118.607 149.804 118.762 150.52C118.918 151.237 119 152.156 119 153.333V173.576C118.525 173.699 117.811 173.823 116.824 173.912C115.836 173.956 114.684 173.991 113.377 173.991L113.386 174ZM113.623 170.471C114.373 170.471 114.894 170.427 115.086 170.392V162.159C114.885 162.035 114.693 161.99 114.41 161.946C114.135 161.902 113.861 161.902 113.578 161.902C113.139 161.902 112.782 161.946 112.554 161.982C112.279 162.026 112.078 162.15 111.959 162.318C111.84 162.486 111.758 162.698 111.722 162.99C111.685 163.282 111.685 163.662 111.685 164.122V168.066C111.685 168.614 111.685 169.03 111.722 169.322C111.758 169.614 111.84 169.87 111.959 170.038C112.078 170.206 112.279 170.33 112.554 170.374C112.828 170.418 113.185 170.454 113.623 170.454V170.471Z" fill="white"/>
<path d="M130.273 174L126.362 160.748H126.199V174H122V140H126.199V157.73H126.362L129.85 148.221H134.462L129.927 158.981L135 174H130.263H130.273Z" fill="white"/>
</svg>
